<svg height="260pt" preserveAspectRatio="xMidYMid meet" viewBox="0 0 260 260" width="260pt" xmlns="http://www.w3.org/2000/svg"><path d="m1240 2582c-53-26-83-77-77-133l4-47-56-12c-31-7-85-23-121-37-177-66-340-233-406-415-10-28-20-120-29-259-19-306-52-480-122-649-67-163-142-279-261-402l-83-86 10-39c12-45 62-100 108-119 25-11 110-14 376-14h344l6-55c12-116 111-241 225-286 86-34 207-32 287 5 113 51 196 157 217 277l10 59h344c325 0 347 1 384 20 49 25 89 77 97 125 5 34 3 39-50 86-112 100-237 293-298 461-65 178-109 435-109 643 0 126-20 220-64 310-92 184-272 325-476 371l-70 16v52c0 63-25 106-73 129-45 22-73 21-117-1zm202-367c107-22 194-69 268-144 111-112 150-213 150-386 0-205 45-472 112-665 42-119 128-282 203-381l63-84-936-3c-514-1-937 0-939 2s25 44 61 92c142 192 232 418 281 703 9 51 22 187 29 302l13 210 38 75c73 149 224 258 395 287 58 10 200 6 262-8zm-352-1847c0-108 101-208 208-208 18 0 23-5 20-22-4-30-26-33-95-13-101 29-183 134-183 234 0 26 4 31 25 31 19 0 25-5 25-22z" transform="matrix(.1 0 0 -.1 0 260)"/></svg>