<?xml version="1.0" standalone="no"?>
<!DOCTYPE svg PUBLIC "-//W3C//DTD SVG 20010904//EN"
 "http://www.w3.org/TR/2001/REC-SVG-20010904/DTD/svg10.dtd">
<svg version="1.0" xmlns="http://www.w3.org/2000/svg"
 width="260.000000pt" height="260.000000pt" viewBox="0 0 260.000000 260.000000"
 preserveAspectRatio="xMidYMid meet">
<metadata>
Created by potrace 1.11, written by Peter Selinger 2001-2013
</metadata>
<g transform="translate(0.000000,260.000000) scale(0.100000,-0.100000)"
fill="#000000" stroke="none">
<path d="M1240 2582 c-53 -26 -83 -77 -77 -133 l4 -47 -56 -12 c-31 -7 -85
-23 -121 -37 -177 -66 -340 -233 -406 -415 -10 -28 -20 -120 -29 -259 -19
-306 -52 -480 -122 -649 -67 -163 -142 -279 -261 -402 l-83 -86 10 -39 c12
-45 62 -100 108 -119 25 -11 110 -14 376 -14 l344 0 6 -55 c12 -116 111 -241
225 -286 86 -34 207 -32 287 5 113 51 196 157 217 277 l10 59 344 0 c325 0
347 1 384 20 49 25 89 77 97 125 5 34 3 39 -50 86 -112 100 -237 293 -298 461
-65 178 -109 435 -109 643 0 126 -20 220 -64 310 -92 184 -272 325 -476 371
l-70 16 0 52 c0 63 -25 106 -73 129 -45 22 -73 21 -117 -1z m202 -367 c107
-22 194 -69 268 -144 111 -112 150 -213 150 -386 0 -205 45 -472 112 -665 42
-119 128 -282 203 -381 l63 -84 -936 -3 c-514 -1 -937 0 -939 2 -2 2 25 44 61
92 142 192 232 418 281 703 9 51 22 187 29 302 l13 210 38 75 c73 149 224 258
395 287 58 10 200 6 262 -8z m-352 -1847 c0 -108 101 -208 208 -208 18 0 23
-5 20 -22 -4 -30 -26 -33 -95 -13 -101 29 -183 134 -183 234 0 26 4 31 25 31
19 0 25 -5 25 -22z"/>
</g>
</svg>
